<svg width="152" height="38" viewBox="0 0 152 38" fill="none" xmlns="http://www.w3.org/2000/svg">
    <path d="M0.0834073 37V2.09091H23.197V8.17614H7.46409V16.4943H21.663V22.5795H7.46409V37H0.0834073ZM28.0252 37V10.8182H35.2865V37H28.0252ZM31.6729 7.44318C30.5934 7.44318 29.6672 7.08523 28.8945 6.36932C28.1331 5.64204 27.7524 4.77273 27.7524 3.76136C27.7524 2.76136 28.1331 1.90341 28.8945 1.1875C29.6672 0.460226 30.5934 0.0965891 31.6729 0.0965891C32.7524 0.0965891 33.6729 0.460226 34.4343 1.1875C35.207 1.90341 35.5934 2.76136 35.5934 3.76136C35.5934 4.77273 35.207 5.64204 34.4343 6.36932C33.6729 7.08523 32.7524 7.44318 31.6729 7.44318ZM55.0294 10.8182V16.2727H39.2624V10.8182H55.0294ZM42.8419 4.54545H50.1033V28.9545C50.1033 29.625 50.2056 30.1477 50.4101 30.5227C50.6147 30.8864 50.8987 31.142 51.2624 31.2898C51.6374 31.4375 52.0692 31.5114 52.5578 31.5114C52.8987 31.5114 53.2397 31.483 53.5806 31.4261C53.9215 31.358 54.1828 31.3068 54.3647 31.2727L55.5067 36.6761C55.1431 36.7898 54.6317 36.9205 53.9726 37.0682C53.3135 37.2273 52.5124 37.3239 51.5692 37.358C49.8192 37.4261 48.2851 37.1932 46.9669 36.6591C45.6601 36.125 44.6431 35.2955 43.9158 34.1705C43.1885 33.0455 42.8306 31.625 42.8419 29.9091V4.54545ZM60.4584 37V2.09091H67.8391V16.4943H82.822V2.09091H90.1857V37H82.822V22.5795H67.8391V37H60.4584ZM112.924 25.8523V10.8182H120.186V37H113.214V32.2443H112.941C112.35 33.7784 111.367 35.0114 109.992 35.9432C108.629 36.875 106.964 37.3409 104.998 37.3409C103.248 37.3409 101.708 36.9432 100.379 36.1477C99.0493 35.3523 98.0095 34.2216 97.2595 32.7557C96.5209 31.2898 96.1459 29.5341 96.1345 27.4886V10.8182H103.396V26.1932C103.407 27.7386 103.822 28.9602 104.64 29.858C105.458 30.7557 106.555 31.2045 107.93 31.2045C108.805 31.2045 109.623 31.0057 110.385 30.608C111.146 30.1989 111.76 29.5966 112.225 28.8011C112.703 28.0057 112.936 27.0227 112.924 25.8523ZM126.13 37V2.09091H133.392V15.2159H133.613C133.931 14.5114 134.392 13.7955 134.994 13.0682C135.608 12.3295 136.403 11.7159 137.38 11.2273C138.369 10.7273 139.596 10.4773 141.062 10.4773C142.971 10.4773 144.733 10.9773 146.346 11.9773C147.96 12.9659 149.25 14.4602 150.216 16.4602C151.181 18.4489 151.664 20.9432 151.664 23.9432C151.664 26.8636 151.193 29.3295 150.25 31.3409C149.318 33.3409 148.045 34.858 146.431 35.892C144.829 36.9148 143.034 37.4261 141.045 37.4261C139.636 37.4261 138.437 37.1932 137.448 36.7273C136.471 36.2614 135.67 35.6761 135.045 34.9716C134.42 34.2557 133.943 33.5341 133.613 32.8068H133.289V37H126.13ZM133.238 23.9091C133.238 25.4659 133.454 26.8239 133.886 27.983C134.318 29.142 134.943 30.0455 135.761 30.6932C136.579 31.3295 137.573 31.6477 138.744 31.6477C139.926 31.6477 140.926 31.3239 141.744 30.6761C142.562 30.017 143.181 29.108 143.602 27.9489C144.034 26.7784 144.25 25.4318 144.25 23.9091C144.25 22.3977 144.039 21.0682 143.619 19.9205C143.198 18.7727 142.579 17.875 141.761 17.2273C140.943 16.5795 139.937 16.2557 138.744 16.2557C137.562 16.2557 136.562 16.5682 135.744 17.1932C134.937 17.8182 134.318 18.7045 133.886 19.8523C133.454 21 133.238 22.3523 133.238 23.9091Z"
          fill="#222831"/>
</svg>
